<?xml version="1.0" encoding="utf-8"?>
<!-- Generator: Adobe Illustrator 16.0.0, SVG Export Plug-In . SVG Version: 6.00 Build 0)  -->
<!DOCTYPE svg PUBLIC "-//W3C//DTD SVG 1.1//EN" "http://www.w3.org/Graphics/SVG/1.1/DTD/svg11.dtd">
<svg version="1.1" id="Layer_1" xmlns="http://www.w3.org/2000/svg" xmlns:xlink="http://www.w3.org/1999/xlink" x="0px" y="0px"
	 width="251.95px" height="239.952px" viewBox="-3846.767 378.734 251.95 239.952"
	 enable-background="new -3846.767 378.734 251.95 239.952" xml:space="preserve">
<g>
	<path fill="#333333" d="M-3946.7,526.445c-0.9-3.225-2.247-6.341-4.159-9.372l-8.177,1.148c-1.472-1.796-3.144-3.376-4.972-4.726
		l0.738-8.226c-2.993-1.686-6.219-2.928-9.569-3.685l-4.971,6.595c-2.26-0.226-4.563-0.176-6.86,0.169l-5.293-6.337
		c-3.225,0.901-6.341,2.248-9.372,4.16l1.148,8.177c-1.796,1.472-3.377,3.145-4.727,4.972l-8.226-0.737
		c-1.687,2.99-2.929,6.218-3.685,9.568l6.596,4.972c-0.226,2.261-0.177,4.563,0.17,6.859l-6.336,5.294
		c0.9,3.225,2.247,6.34,4.158,9.372l8.177-1.148c1.472,1.796,3.145,3.377,4.972,4.726l-0.737,8.227
		c2.99,1.686,6.219,2.928,9.568,3.685l4.972-6.596c2.26,0.226,4.563,0.177,6.859-0.169l5.293,6.336
		c3.226-0.9,6.341-2.247,9.373-4.159l-1.148-8.177c1.795-1.472,3.377-3.145,4.726-4.973l8.227,0.738
		c1.686-2.991,2.928-6.219,3.685-9.569l-6.595-4.972c0.226-2.26,0.176-4.563-0.17-6.859L-3946.7,526.445z M-3974.441,549.623
		c-7.6,3.373-16.497-0.053-19.872-7.654c-3.373-7.601,0.054-16.497,7.655-19.872s16.497,0.054,19.872,7.654
		S-3966.84,546.248-3974.441,549.623z"/>
	<path fill="#333333" d="M-4005.278,507.801c0.97-6.625,1.037-13.415,0-20.507l-15.876-4.536c-1.233-4.477-3.009-8.727-5.255-12.676
		l8.023-14.44c-4.101-5.51-8.99-10.399-14.501-14.5l-14.44,8.022c-3.949-2.247-8.198-4.022-12.676-5.255l-4.536-15.875
		c-6.625-0.97-13.415-1.037-20.507,0l-4.537,15.875c-4.476,1.233-8.727,3.009-12.675,5.255l-14.44-8.022
		c-5.51,4.101-10.399,8.99-14.5,14.5l8.023,14.44c-2.247,3.949-4.022,8.197-5.255,12.676l-15.876,4.536
		c-0.97,6.625-1.036,13.415,0,20.507l15.876,4.536c1.233,4.477,3.009,8.727,5.255,12.676l-8.023,14.44
		c4.101,5.51,8.99,10.4,14.5,14.5l14.44-8.022c3.949,2.247,8.198,4.022,12.675,5.255l4.537,15.877
		c6.625,0.969,13.415,1.036,20.507,0l4.536-15.877c4.479-1.233,8.727-3.008,12.676-5.255l14.44,8.022
		c5.511-4.101,10.4-8.99,14.501-14.5l-8.023-14.44c2.247-3.949,4.023-8.197,5.255-12.676L-4005.278,507.801z M-4074.792,527.663
		c-16.631,0-30.116-13.482-30.116-30.116c0-16.631,13.482-30.116,30.116-30.116c16.633,0,30.116,13.482,30.116,30.116
		C-4044.678,514.178-4058.16,527.663-4074.792,527.663z"/>
	<path fill="#333333" d="M-4054.716,497.547c0,11.088-8.988,20.078-20.078,20.078s-20.078-8.987-20.078-20.078
		c0-11.089,8.988-20.075,20.078-20.075S-4054.716,486.459-4054.716,497.547z"/>
</g>
<text transform="matrix(1 0 0 1 0.0039 2778.5771)" font-family="'Arial-BoldMT'" font-size="51.15">Created by Ayub Irawan</text>
<text transform="matrix(1 0 0 1 0.0039 2829.7256)" font-family="'Arial-BoldMT'" font-size="51.15">from the Noun Project</text>
<g>
	<g>
		<g>
			<path fill="#333333" d="M-4078.415,871.439h-154.468c-1.998,0-3.62-1.624-3.62-3.623V751.881c0-2.001,1.622-3.624,3.62-3.624
				h154.468c1.998,0,3.621,1.623,3.621,3.624v115.936C-4074.794,869.815-4076.417,871.439-4078.415,871.439z M-4229.262,864.192
				h147.226V755.504h-147.226V864.192z"/>
		</g>
	</g>
	<g>
		<g>
			<path fill="#333333" d="M-4138.754,895.592h-33.79c-1.998,0-3.621-1.623-3.621-3.624v-24.151c0-2.001,1.623-3.624,3.621-3.624
				h33.79c1.998,0,3.621,1.621,3.621,3.624v24.151C-4135.133,893.969-4136.756,895.592-4138.754,895.592z M-4168.923,888.346h26.549
				v-16.906h-26.549V888.346z"/>
		</g>
	</g>
	<g>
		<g>
			<rect x="-4215.987" y="888.346" fill="#333333" width="120.677" height="7.246"/>
		</g>
	</g>
	<g>
		<g>
			<path fill="#333333" d="M-4095.31,765.165h-120.677c-1.999,0-3.621,1.62-3.621,3.622v82.121c0,2.001,1.622,3.623,3.621,3.623
				h120.677c1.998,0,3.62-1.621,3.62-3.623v-82.121C-4091.689,766.787-4093.312,765.165-4095.31,765.165z M-4164.969,824.38
				l-5.119,5.124l-17.083-17.095c-1.414-1.416-1.414-3.707,0-5.123l17.083-17.098l5.119,5.124l-14.523,14.533L-4164.969,824.38z
				 M-4155.922,827.731l-7.066-1.576l7.612-34.19l7.067,1.575L-4155.922,827.731z M-4124.126,812.409l-17.083,17.095l-5.119-5.124
				l14.523-14.534l-14.523-14.533l5.119-5.124l17.083,17.098C-4122.712,808.702-4122.712,810.993-4124.126,812.409z"/>
		</g>
	</g>
</g>
<path fill="#333333" d="M-3680.49,435.314h-80.605c-16.687,0-30.394,13.707-30.394,30.395v41.568
	c0,16.687,13.707,30.395,30.394,30.395h47.529l34.119,24.435l1.639-24.732c15.495-1.341,27.712-14.304,27.712-30.097v-41.568
	C-3649.947,449.021-3663.654,435.314-3680.49,435.314z M-3754.986,498.188c-6.406,0-11.621-5.215-11.621-11.621
	s5.215-11.621,11.621-11.621c6.407,0,11.622,5.215,11.622,11.621S-3748.579,498.188-3754.986,498.188z M-3720.718,498.188
	c-6.407,0-11.621-5.215-11.621-11.621s5.215-11.621,11.621-11.621s11.621,5.215,11.621,11.621S-3714.311,498.188-3720.718,498.188z
	 M-3686.599,498.188c-6.407,0-11.622-5.215-11.622-11.621s5.215-11.621,11.622-11.621c6.406,0,11.621,5.215,11.621,11.621
	S-3680.192,498.188-3686.599,498.188z"/>
</svg>
