<?xml version="1.0" encoding="utf-8"?>
<!-- Generator: Adobe Illustrator 16.0.0, SVG Export Plug-In . SVG Version: 6.00 Build 0)  -->
<!DOCTYPE svg PUBLIC "-//W3C//DTD SVG 1.1//EN" "http://www.w3.org/Graphics/SVG/1.1/DTD/svg11.dtd">
<svg version="1.1" id="Layer_1" xmlns="http://www.w3.org/2000/svg" xmlns:xlink="http://www.w3.org/1999/xlink" x="0px" y="0px"
	 width="251.95px" height="239.952px" viewBox="-3846.767 378.734 251.95 239.952"
	 enable-background="new -3846.767 378.734 251.95 239.952" xml:space="preserve">
<g>
	<path fill="#333333" d="M-3946.7,526.445c-0.9-3.225-2.247-6.341-4.159-9.372l-8.177,1.148c-1.472-1.796-3.144-3.376-4.972-4.726
		l0.738-8.226c-2.993-1.686-6.219-2.928-9.569-3.685l-4.971,6.595c-2.26-0.226-4.563-0.176-6.86,0.169l-5.293-6.337
		c-3.225,0.901-6.341,2.248-9.372,4.16l1.148,8.177c-1.796,1.472-3.377,3.145-4.727,4.972l-8.226-0.737
		c-1.687,2.99-2.929,6.218-3.685,9.568l6.596,4.972c-0.226,2.261-0.177,4.563,0.17,6.859l-6.336,5.294
		c0.9,3.225,2.247,6.34,4.158,9.372l8.177-1.148c1.472,1.796,3.145,3.377,4.972,4.726l-0.737,8.227
		c2.99,1.686,6.219,2.928,9.568,3.685l4.972-6.596c2.26,0.226,4.563,0.177,6.859-0.169l5.293,6.336
		c3.226-0.9,6.341-2.247,9.373-4.159l-1.148-8.177c1.795-1.472,3.377-3.145,4.726-4.973l8.227,0.738
		c1.686-2.991,2.928-6.219,3.685-9.569l-6.595-4.972c0.226-2.26,0.176-4.563-0.17-6.859L-3946.7,526.445z M-3974.441,549.623
		c-7.6,3.373-16.497-0.053-19.872-7.654c-3.373-7.601,0.054-16.497,7.655-19.872s16.497,0.054,19.872,7.654
		S-3966.84,546.248-3974.441,549.623z"/>
	<path fill="#333333" d="M-4005.278,507.801c0.97-6.625,1.037-13.415,0-20.507l-15.876-4.536c-1.233-4.477-3.009-8.727-5.255-12.676
		l8.023-14.44c-4.101-5.51-8.99-10.399-14.501-14.5l-14.44,8.022c-3.949-2.247-8.198-4.022-12.676-5.255l-4.536-15.875
		c-6.625-0.97-13.415-1.037-20.507,0l-4.537,15.875c-4.476,1.233-8.727,3.009-12.675,5.255l-14.44-8.022
		c-5.51,4.101-10.399,8.99-14.5,14.5l8.023,14.44c-2.247,3.949-4.022,8.197-5.255,12.676l-15.876,4.536
		c-0.97,6.625-1.036,13.415,0,20.507l15.876,4.536c1.233,4.477,3.009,8.727,5.255,12.676l-8.023,14.44
		c4.101,5.51,8.99,10.4,14.5,14.5l14.44-8.022c3.949,2.247,8.198,4.022,12.675,5.255l4.537,15.877
		c6.625,0.969,13.415,1.036,20.507,0l4.536-15.877c4.479-1.233,8.727-3.008,12.676-5.255l14.44,8.022
		c5.511-4.101,10.4-8.99,14.501-14.5l-8.023-14.44c2.247-3.949,4.023-8.197,5.255-12.676L-4005.278,507.801z M-4074.792,527.663
		c-16.631,0-30.116-13.482-30.116-30.116c0-16.631,13.482-30.116,30.116-30.116c16.633,0,30.116,13.482,30.116,30.116
		C-4044.678,514.178-4058.16,527.663-4074.792,527.663z"/>
	<path fill="#333333" d="M-4054.716,497.547c0,11.088-8.988,20.078-20.078,20.078s-20.078-8.987-20.078-20.078
		c0-11.089,8.988-20.075,20.078-20.075S-4054.716,486.459-4054.716,497.547z"/>
</g>
<text transform="matrix(1 0 0 1 0.0039 2778.5771)" font-family="'Arial-BoldMT'" font-size="51.15">Created by Ayub Irawan</text>
<text transform="matrix(1 0 0 1 0.0039 2829.7256)" font-family="'Arial-BoldMT'" font-size="51.15">from the Noun Project</text>
<g>
	<g>
		<g>
			<path fill="#333333" d="M-3643.558,548.226h-154.468c-1.998,0-3.62-1.624-3.62-3.623V428.667c0-2.001,1.622-3.624,3.62-3.624
				h154.468c1.998,0,3.621,1.623,3.621,3.624v115.936C-3639.937,546.602-3641.56,548.226-3643.558,548.226z M-3794.405,540.979
				h147.227V432.29h-147.227V540.979z"/>
		</g>
	</g>
	<g>
		<g>
			<path fill="#333333" d="M-3703.897,572.378h-33.789c-1.998,0-3.621-1.623-3.621-3.624v-24.151c0-2.001,1.623-3.624,3.621-3.624
				h33.789c1.998,0,3.621,1.621,3.621,3.624v24.151C-3700.276,570.755-3701.899,572.378-3703.897,572.378z M-3734.066,565.132
				h26.549v-16.906h-26.549V565.132z"/>
		</g>
	</g>
	<g>
		<g>
			<rect x="-3781.131" y="565.132" fill="#333333" width="120.678" height="7.246"/>
		</g>
	</g>
	<g>
		<g>
			<path fill="#333333" d="M-3660.453,441.951h-120.678c-1.998,0-3.62,1.62-3.62,3.622v82.121c0,2.001,1.622,3.623,3.62,3.623
				h120.678c1.998,0,3.62-1.621,3.62-3.623v-82.121C-3656.833,443.573-3658.455,441.951-3660.453,441.951z M-3730.112,501.166
				l-5.119,5.124l-17.083-17.095c-1.414-1.416-1.414-3.707,0-5.123l17.083-17.098l5.119,5.124l-14.523,14.533L-3730.112,501.166z
				 M-3721.065,504.518l-7.066-1.576l7.612-34.19l7.067,1.575L-3721.065,504.518z M-3689.27,489.195l-17.083,17.095l-5.119-5.124
				l14.523-14.534l-14.523-14.533l5.119-5.124l17.083,17.098C-3687.855,485.488-3687.855,487.779-3689.27,489.195z"/>
		</g>
	</g>
</g>
</svg>
