<?xml version="1.0" encoding="utf-8"?>
<!-- Generator: Adobe Illustrator 16.0.0, SVG Export Plug-In . SVG Version: 6.00 Build 0)  -->
<!DOCTYPE svg PUBLIC "-//W3C//DTD SVG 1.1//EN" "http://www.w3.org/Graphics/SVG/1.1/DTD/svg11.dtd">
<svg version="1.1" id="레이어_1" xmlns="http://www.w3.org/2000/svg" xmlns:xlink="http://www.w3.org/1999/xlink" x="0px"
	 y="0px" width="108px" height="115.007px" viewBox="20.994 2.593 108 115.007" enable-background="new 20.994 2.593 108 115.007"
	 xml:space="preserve">
<title>Artboard 2</title>
<path fill="#333333" d="M47.957,93.789h54.083c1.553,0,2.812-1.26,2.812-2.813V85.45c0.008-5.896-3.831-11.105-9.463-12.847
	c-0.704-0.204-1.033-0.28-1.09-0.315l-3.256-0.858c4.631-3.627,6.739-9.612,5.399-15.341l-3.515-15.124l0,0
	c-2.058-9.884-11.735-16.23-21.621-14.174c-7.125,1.482-12.691,7.049-14.174,14.174l-3.516,15.124
	c-1.353,5.717,0.729,11.699,5.337,15.341l-3.227,0.858c-0.057,0-0.422,0.112-1.09,0.315c-5.646,1.729-9.501,6.941-9.499,12.847
	v5.526c0,1.553,1.259,2.813,2.813,2.813C47.951,93.789,47.954,93.789,47.957,93.789z M64.078,46.379
	c2.757,0.161,8.079-0.415,14.343-5.808c0.528-0.458,1.327-0.403,1.787,0.124c0.049,0.058,0.095,0.12,0.134,0.185
	c1.468,2.357,3.574,4.249,6.075,5.457c0.52,0.272,0.839,0.818,0.822,1.406l-0.142,6.883c-0.109,4.128-1.983,8.012-5.146,10.666
	c-0.211,0.172-0.332,0.431-0.329,0.704v5.414c0.007,1.066,0.595,2.043,1.532,2.552l-7.173,9.372
	c-0.42,0.544-1.202,0.644-1.746,0.224c-0.083-0.064-0.158-0.14-0.223-0.224l-7.171-9.372c0.944-0.513,1.531-1.5,1.533-2.573v-5.415
	c0.002-0.272-0.12-0.53-0.331-0.703c-2.407-2.026-4.086-4.784-4.78-7.854l-0.437-5.547v-0.057l-0.077-4.17
	c-0.021-0.679,0.512-1.247,1.191-1.268C63.986,46.374,64.033,46.375,64.078,46.379z"/>
<g transform="translate(0,-952.36218)">
	<path d="M-108.012,992.989l36.506,13.791l-36.506,13.791l-36.506-13.791L-108.012,992.989z M-75.563,1010.025v6.845
		c-0.499-0.22-1.041-0.355-1.622-0.355c-0.58,0-1.122,0.135-1.622,0.355v-5.628L-75.563,1010.025z M-85.297,1013.701v10.115
		c0,3.396-10.131,8.113-22.715,8.113s-22.715-4.717-22.715-8.113v-10.115l22.131,8.366c0.375,0.145,0.792,0.145,1.167,0
		L-85.297,1013.701z M-77.185,1018.138c1.344,0,2.434,1.089,2.434,2.433s-1.09,2.433-2.434,2.433c-1.345,0-2.434-1.089-2.434-2.433
		S-78.529,1018.138-77.185,1018.138z"/>
</g>
</svg>
