<?xml version="1.0" encoding="utf-8"?>
<!-- Generator: Adobe Illustrator 22.0.0, SVG Export Plug-In . SVG Version: 6.00 Build 0)  -->
<svg version="1.1" id="레이어_1" xmlns="http://www.w3.org/2000/svg" xmlns:xlink="http://www.w3.org/1999/xlink" x="0px"
	 y="0px" viewBox="0 0 108 115" style="enable-background:new 0 0 108 115;" xml:space="preserve">
<path d="M85.7,42.1H64.6v-8.5c0-1.2-0.9-2.1-2.1-2.1H45.5c-1.2,0-2.1,0.9-2.1,2.1v8.5H22.3c-1.2,0-2.1,0.9-2.1,2.1v9.5
	c0.1,5.3,4.5,9.6,9.9,9.5h17.6v-3.2c0-2.3,1.9-4.2,4.2-4.2h4.2c2.3,0,4.2,1.9,4.2,4.2v3.2H78c5.3,0.1,9.8-4.2,9.9-9.5v-9.5
	C87.8,43,86.9,42.1,85.7,42.1z M60.3,42.1H47.7v-6.3h12.7V42.1z M87.8,60.3v24.1c0,1.2-0.9,2.1-2.1,2.1H22.3c-1.2,0-2.1-0.9-2.1-2.1
	V60.3c2.3,3.2,6,5.1,9.9,5h17.6v3.2c0,2.3,1.9,4.2,4.2,4.2h4.2c2.3,0,4.2-1.9,4.2-4.2v-3.2H78C81.9,65.4,85.6,63.5,87.8,60.3z
	 M51.9,70.6c-1.2,0-2.1-0.9-2.1-2.1v-8.5c0-1.2,0.9-2.1,2.1-2.1h4.2c1.2,0,2.1,0.9,2.1,2.1v8.5c0,1.2-0.9,2.1-2.1,2.1H51.9z"/>
</svg>
