<?xml version="1.0" encoding="utf-8"?>
<!-- Generator: Adobe Illustrator 16.0.0, SVG Export Plug-In . SVG Version: 6.00 Build 0)  -->
<!DOCTYPE svg PUBLIC "-//W3C//DTD SVG 1.1//EN" "http://www.w3.org/Graphics/SVG/1.1/DTD/svg11.dtd">
<svg version="1.1" id="레이어_1" xmlns="http://www.w3.org/2000/svg" xmlns:xlink="http://www.w3.org/1999/xlink" x="0px"
	 y="0px" width="108px" height="115.007px" viewBox="20.994 2.593 108 115.007" enable-background="new 20.994 2.593 108 115.007"
	 xml:space="preserve">
<title>Artboard 2</title>
<path d="M-117.652,19.6h92.304c2.65,0,4.8-2.148,4.8-4.8V5.368c0.011-10.062-6.54-18.953-16.152-21.925
	c-1.2-0.348-1.764-0.479-1.86-0.539l-5.556-1.465c7.905-6.19,11.501-16.406,9.216-26.184l-6-25.812l0,0
	c-3.51-16.87-20.03-27.701-36.9-24.191c-12.16,2.529-21.662,12.031-24.191,24.191l-6,25.812c-2.309,9.756,1.243,19.967,9.108,26.184
	l-5.508,1.465c-0.096,0-0.72,0.191-1.86,0.539c-9.636,2.95-16.215,11.848-16.212,21.925V14.8c0,2.651,2.149,4.8,4.8,4.8
	C-117.66,19.6-117.656,19.6-117.652,19.6z M-90.136-61.316c4.704,0.276,13.788-0.708,24.48-9.912c0.9-0.783,2.265-0.688,3.048,0.211
	c0.085,0.099,0.162,0.205,0.229,0.316c2.505,4.023,6.101,7.252,10.368,9.312c0.889,0.465,1.435,1.397,1.404,2.4l-0.24,11.748
	c-0.187,7.046-3.385,13.674-8.784,18.204c-0.36,0.294-0.567,0.735-0.563,1.2v9.24c0.015,1.819,1.016,3.487,2.615,4.355L-69.82,1.756
	c-0.717,0.928-2.051,1.098-2.979,0.381c-0.142-0.11-0.27-0.238-0.38-0.381L-85.42-14.24c1.61-0.875,2.614-2.559,2.616-4.392v-9.24
	c0.003-0.465-0.204-0.906-0.564-1.2c-4.109-3.458-6.975-8.166-8.16-13.404l-0.744-9.468v-0.096l-0.132-7.116
	c-0.037-1.159,0.873-2.128,2.032-2.166C-90.293-61.324-90.214-61.322-90.136-61.316z"/>
<g transform="translate(0,-952.36218)">
	<path fill="#333333" d="M74.994,992.989l36.506,13.791l-36.506,13.791l-36.506-13.791L74.994,992.989z M107.443,1010.025v6.845
		c-0.499-0.22-1.041-0.355-1.622-0.355c-0.58,0-1.122,0.135-1.622,0.355v-5.628L107.443,1010.025z M97.709,1013.701v10.115
		c0,3.396-10.131,8.113-22.715,8.113s-22.715-4.717-22.715-8.113v-10.115l22.131,8.366c0.375,0.145,0.792,0.145,1.167,0
		L97.709,1013.701z M105.821,1018.138c1.344,0,2.434,1.089,2.434,2.433s-1.09,2.433-2.434,2.433c-1.345,0-2.434-1.089-2.434-2.433
		S104.477,1018.138,105.821,1018.138z"/>
</g>
</svg>
