<?xml version="1.0" encoding="utf-8"?>
<!-- Generator: Adobe Illustrator 16.0.0, SVG Export Plug-In . SVG Version: 6.00 Build 0)  -->
<!DOCTYPE svg PUBLIC "-//W3C//DTD SVG 1.1//EN" "http://www.w3.org/Graphics/SVG/1.1/DTD/svg11.dtd">
<svg version="1.1"
	 id="레이어_1" xmlns:dc="http://purl.org/dc/elements/1.1/" xmlns:cc="http://creativecommons.org/ns#" xmlns:rdf="http://www.w3.org/1999/02/22-rdf-syntax-ns#" xmlns:svg="http://www.w3.org/2000/svg" xmlns:sodipodi="http://sodipodi.sourceforge.net/DTD/sodipodi-0.dtd" xmlns:inkscape="http://www.inkscape.org/namespaces/inkscape"
	 xmlns="http://www.w3.org/2000/svg" xmlns:xlink="http://www.w3.org/1999/xlink" x="0px" y="0px" width="37.625px" height="27px"
	 viewBox="0 0 37.625 27" enable-background="new 0 0 37.625 27" xml:space="preserve">
<g transform="translate(0,-952.36218)">
	<g>
		<path fill="#E7746E" d="M5.624,974.094c-0.104,0-0.187-0.086-0.187-0.196v-13.309l12.931,9.112
			c0.13,0.092,0.284,0.141,0.444,0.141s0.314-0.049,0.444-0.141l12.932-9.112v13.309c0,0.11-0.082,0.196-0.188,0.196H5.624z
			 M5.438,958.706v-0.879c0-0.11,0.082-0.196,0.187-0.196h26.377c0.104,0,0.188,0.086,0.188,0.196v0.879l-13.375,9.424
			L5.438,958.706z"/>
		<path fill="#E7746E" d="M32.001,957.755c0.035,0,0.062,0.031,0.062,0.071v0.814l-13.25,9.335l-13.25-9.335v-0.814
			c0-0.041,0.026-0.071,0.062-0.071H32.001 M5.563,960.83l12.733,8.973c0.152,0.107,0.331,0.164,0.517,0.164
			s0.365-0.057,0.516-0.164l12.733-8.974v13.068c0,0.039-0.026,0.07-0.062,0.07H5.624c-0.035,0-0.062-0.031-0.062-0.07L5.563,960.83
			 M32.001,957.505H5.624c-0.174,0-0.312,0.143-0.312,0.321v0.944l13.5,9.512l13.5-9.512v-0.944
			C32.313,957.648,32.175,957.505,32.001,957.505L32.001,957.505z M32.313,960.348l-13.127,9.25
			c-0.111,0.079-0.242,0.118-0.372,0.118s-0.261-0.04-0.372-0.118l-13.128-9.25v13.549c0,0.179,0.138,0.321,0.312,0.321h26.377
			c0.174,0,0.313-0.144,0.313-0.321v-13.549H32.313z"/>
	</g>
</g>
</svg>
