<?xml version="1.0" encoding="utf-8"?>
<!-- Generator: Adobe Illustrator 16.0.0, SVG Export Plug-In . SVG Version: 6.00 Build 0)  -->
<!DOCTYPE svg PUBLIC "-//W3C//DTD SVG 1.1//EN" "http://www.w3.org/Graphics/SVG/1.1/DTD/svg11.dtd">
<svg version="1.1" id="레이어_1" xmlns="http://www.w3.org/2000/svg" xmlns:xlink="http://www.w3.org/1999/xlink" x="0px"
	 y="0px" width="59px" height="59px" viewBox="0 0 59 59" enable-background="new 0 0 59 59" xml:space="preserve">
<g>
	<path fill="#ECC731" stroke="#ECC731" stroke-width="0.5" stroke-miterlimit="10" d="M47.522,9.248
		c-0.321,0-0.625,0.128-0.865,0.367l-14.97,14.921c-0.095-0.048-0.191-0.064-0.287-0.081c-0.225-0.015-0.463,0.032-0.673,0.176
		l-0.959,0.623l-0.191-0.208l-2.174-2.154c-0.482-0.463-1.12-0.75-1.776-0.814c-0.641-0.063-1.312,0.08-1.873,0.447l-6.22,4.165
		c-0.145-0.095-0.321-0.16-0.496-0.176c-0.274-0.031-0.529,0.032-0.768,0.176l-2.096,1.404c-0.224,0.144-0.4,0.415-0.415,0.687
		c-0.017,0.191,0.047,0.399,0.158,0.575l-4.542,3.048c-0.208,0.144-0.239,0.494-0.064,0.687l0.656,0.638l1.952,1.947
		c0.016,0.016,0.016,0.016,0.031,0.032l13.323,13.277l0.64,0.653c0.193,0.177,0.543,0.145,0.689-0.063l3.055-4.516
		c0.16,0.111,0.384,0.159,0.575,0.143c0.272-0.016,0.528-0.177,0.688-0.399l1.391-2.107c0.256-0.398,0.241-0.877,0-1.26l4.174-6.208
		c0.735-1.118,0.594-2.681-0.352-3.623l-2.176-2.17l-0.206-0.19l0.638-0.958c0.209-0.304,0.226-0.654,0.081-0.975l14.97-14.921
		c0.48-0.478,0.48-1.276,0-1.754l-1.039-1.038C48.162,9.359,47.842,9.248,47.522,9.248L47.522,9.248z M47.522,10.141
		c0.096,0,0.175,0.032,0.239,0.096l1.055,1.038c0.128,0.128,0.128,0.334,0,0.478L33.894,26.626l-0.191-0.208l-1.121-1.102
		l-0.191-0.208l14.891-14.874C47.361,10.173,47.441,10.141,47.522,10.141L47.522,10.141z M25.21,22.988c0.112,0,0.224,0,0.336,0
		c0.465,0.048,0.896,0.239,1.2,0.543l2.174,2.17l0.448,0.431l0.017,0.016l1.743,1.74l1.727,1.739
		c0.015,0.016,0.048,0.032,0.063,0.048l0.4,0.399l2.175,2.17c0.608,0.606,0.72,1.771,0.24,2.49l-4.047,6.016l-0.175-0.16h-0.016
		L18.382,27.504l-0.16-0.176l6.045-4.038C24.539,23.116,24.874,23.019,25.21,22.988L25.21,22.988z M31.224,25.366
		c0.016-0.017,0.143,0,0.176,0.032c0.031,0.032,0.062,0.063,0.096,0.08l0.465,0.478l1.103,1.086l0.383,0.383
		c0.033,0.096,0.097,0.191,0.193,0.239c0,0.047,0,0.112,0,0.128l-0.528,0.797l-2.704-2.68L31.224,25.366L31.224,25.366z
		 M16.846,27.44c0.081-0.016,0.208,0,0.255,0.063l0.081,0.063l0.015,0.017l0.544,0.543l13.132,13.101l0.559,0.558
		c0.016,0,0.016,0.016,0.033,0.033l0.048,0.047v0.016c0.081,0.063,0.096,0.255,0.048,0.319l-1.392,2.09c-0.015,0,0,0,0,0.016
		c-0.015,0-0.033,0-0.047-0.016l-0.191-0.207c-0.016-0.017-0.033-0.032-0.048-0.047l-1.424-1.421L16.351,30.552l-1.345-1.34
		c0,0-0.015-0.017-0.015-0.032l0,0c-0.048-0.063-0.096-0.112-0.16-0.145l-0.145-0.159c-0.031-0.032-0.031-0.032-0.031-0.032
		c0,0.016-0.015,0.016,0.017-0.016l2.11-1.373C16.798,27.44,16.814,27.44,16.846,27.44L16.846,27.44z M14.542,30.009l1.167,1.181
		l12.106,12.065l1.169,1.181l-2.814,4.181l-0.272-0.255l-1.792-1.788c0.272-0.99,0.705-1.851,1.503-2.57
		c0.144-0.128,0.193-0.351,0.113-0.526c-0.081-0.177-0.288-0.288-0.48-0.254c-0.095,0.015-0.176,0.047-0.238,0.111
		c-0.816,0.718-1.296,1.595-1.616,2.521l-2.176-2.188c0.256-0.59,0.432-1.084,1.055-1.548c0.16-0.111,0.225-0.35,0.16-0.526
		c-0.081-0.192-0.272-0.32-0.479-0.288c-0.079,0-0.16,0.048-0.239,0.096c-0.656,0.495-0.959,1.069-1.2,1.58l-1.918-1.947l2.334-2.33
		c0.145-0.143,0.193-0.382,0.098-0.558c-0.098-0.175-0.32-0.272-0.513-0.225c-0.079,0.016-0.16,0.063-0.222,0.128l-2.353,2.346
		l-1.95-1.93c0.527-0.24,1.088-0.543,1.599-1.197c0.224-0.272-0.048-0.766-0.4-0.734c-0.127,0.016-0.239,0.08-0.32,0.176
		c-0.479,0.623-0.976,0.798-1.568,1.053L13.12,35.61c0.928-0.32,1.79-0.814,2.511-1.628c0.241-0.254,0.031-0.75-0.32-0.75
		c-0.129,0-0.255,0.049-0.336,0.144c-0.721,0.814-1.584,1.245-2.575,1.517l-1.808-1.804l-0.256-0.255L14.542,30.009L14.542,30.009z"
		/>
</g>
<g>
	<path fill="#ECC731" stroke="#ECC731" stroke-width="0.5" stroke-miterlimit="10" d="M120.323,107.986
		c4.664,0,9.327-1.797,12.873-5.343c7.094-7.093,7.094-18.655,0-25.749c-7.092-7.092-18.654-7.092-25.747,0
		c-7.093,7.094-7.093,18.656,0,25.749C110.995,106.189,115.659,107.986,120.323,107.986z M108.468,77.916
		c3.255-3.255,7.579-4.907,11.854-4.907c4.274,0,8.599,1.651,11.853,4.907c6.56,6.559,6.56,17.148,0,23.706
		c-6.559,6.558-17.148,6.558-23.708,0C101.959,95.064,101.959,84.475,108.468,77.916z"/>
	<path fill="#ECC731" stroke="#ECC731" stroke-width="0.5" stroke-miterlimit="10" d="M114.25,97.785
		c0.194,0,0.389-0.098,0.535-0.243l6.313-6.851c0.147-0.145,0.196-0.291,0.196-0.485v-9.181c0-0.389-0.341-0.729-0.73-0.729
		c-0.388,0-0.728,0.341-0.728,0.729v8.89l-6.122,6.655c-0.292,0.292-0.243,0.777,0.049,1.021
		C113.862,97.736,114.056,97.785,114.25,97.785z"/>
</g>
<g>
	<g>
		<path fill="#ECC731" d="M-7.49,85.682h-23.637c-0.448,0-0.811-0.363-0.811-0.811v-5.457c0-0.446,0.362-0.809,0.811-0.809H-7.49
			c0.449,0,0.812,0.362,0.812,0.809v5.457C-6.678,85.318-7.041,85.682-7.49,85.682z M-30.316,84.06H-8.3v-3.833h-22.016V84.06z"/>
	</g>
	<g>
		<path fill="#ECC731" d="M-31.126,85.682h-5.296c-0.448,0-0.811-0.363-0.811-0.811v-5.457c0-0.446,0.362-0.809,0.811-0.809h5.296
			c0.448,0,0.811,0.362,0.811,0.809v5.457C-30.316,85.318-30.678,85.682-31.126,85.682z M-35.611,84.06h3.674v-3.833h-3.674V84.06z"
			/>
	</g>
	<g>
		<path fill="#ECC731" d="M-21.956,101.6c-10.729,0-19.458-8.728-19.458-19.457c0-10.729,8.729-19.457,19.458-19.457
			c10.729,0,19.458,8.728,19.458,19.457C-2.499,92.872-11.227,101.6-21.956,101.6z M-21.956,64.307c-9.835,0-17.836,8-17.836,17.835
			s8.001,17.836,17.836,17.836c9.835,0,17.836-8.001,17.836-17.836S-12.121,64.307-21.956,64.307z"/>
	</g>
	<g>
		<path fill="#ECC731" d="M-12.638,80.227c-0.207,0-0.415-0.079-0.573-0.236c-0.316-0.318-0.316-0.832,0-1.147
			c0.135-0.136,0.21-0.316,0.21-0.507c0-0.189-0.075-0.369-0.21-0.504l-0.185-0.188c-0.911-0.91-0.911-2.393-0.001-3.302
			l0.188-0.187c0.134-0.134,0.209-0.314,0.209-0.504s-0.075-0.371-0.21-0.507l-0.184-0.182c-0.912-0.913-0.912-2.396-0.001-3.308
			l0.185-0.185c0.317-0.315,0.83-0.315,1.147,0c0.317,0.318,0.317,0.831,0,1.148l-0.186,0.185c-0.279,0.278-0.279,0.731,0,1.011
			l0.185,0.184c0.442,0.442,0.686,1.028,0.686,1.654c0,0.624-0.243,1.209-0.685,1.654l-0.187,0.183
			c-0.278,0.277-0.278,0.733,0.001,1.011l0.186,0.186c0.441,0.441,0.685,1.027,0.685,1.65c0,0.626-0.243,1.211-0.685,1.654
			C-12.223,80.147-12.43,80.227-12.638,80.227z"/>
	</g>
	<g>
		<path fill="#ECC731" d="M-16.398,80.227c-0.207,0-0.414-0.079-0.573-0.236c-0.317-0.318-0.317-0.832,0-1.147
			c0.278-0.278,0.278-0.733,0-1.011l-0.186-0.188c-0.91-0.91-0.91-2.393,0-3.302l0.187-0.187c0.278-0.279,0.278-0.732,0-1.011
			l-0.185-0.182c-0.317-0.318-0.317-0.832-0.001-1.148c0.317-0.318,0.83-0.318,1.146-0.002l0.186,0.185
			c0.912,0.912,0.912,2.396,0.001,3.304l-0.187,0.187c-0.277,0.277-0.277,0.733,0.001,1.011l0.186,0.186
			c0.911,0.91,0.911,2.393,0,3.305C-15.983,80.147-16.19,80.227-16.398,80.227z"/>
	</g>
	<g>
		<path fill="#ECC731" d="M-8.77,96.139c-0.208,0-0.416-0.078-0.574-0.238l-26.37-26.369c-0.318-0.317-0.318-0.829,0-1.146
			c0.316-0.318,0.829-0.318,1.146,0l26.371,26.368c0.317,0.318,0.317,0.832,0,1.146C-8.355,96.061-8.563,96.139-8.77,96.139z"/>
	</g>
</g>
<g transform="translate(0,-952.36218)">
	<path fill="#ECC731" stroke="#ECC731" stroke-width="0.5" stroke-miterlimit="10" d="M29.5,1072.692
		c-10.932,0-19.8,8.868-19.8,19.8c0,10.927,8.868,19.8,19.8,19.8c10.927,0,19.8-8.873,19.8-19.8
		C49.3,1081.56,40.427,1072.692,29.5,1072.692z M29.5,1073.613c10.429,0,18.879,8.446,18.879,18.879
		c0,10.429-8.45,18.879-18.879,18.879c-10.433,0-18.879-8.45-18.879-18.879C10.621,1082.059,19.067,1073.613,29.5,1073.613z"/>
	<path fill="#ECC731" stroke="#ECC731" stroke-width="0.5" stroke-miterlimit="10" d="M29.5,1080.05
		c-6.868,0-12.442,5.574-12.442,12.442s5.574,12.442,12.442,12.442s12.442-5.574,12.442-12.442S36.368,1080.05,29.5,1080.05
		L29.5,1080.05z M29.5,1080.97c6.37,0,11.522,5.152,11.522,11.522s-5.152,11.522-11.522,11.522s-11.522-5.152-11.522-11.522
		S23.13,1080.97,29.5,1080.97L29.5,1080.97z"/>
	<path fill="#ECC731" stroke="#ECC731" stroke-width="0.5" stroke-miterlimit="10" d="M29.209,1076.294
		c-6.382,0-11.86,4.002-14.261,9.711c-0.102,0.232,0.004,0.504,0.238,0.605c0.232,0.102,0.504-0.006,0.605-0.238
		c0.002-0.003,0.003-0.007,0.006-0.011c2.266-5.389,7.415-9.146,13.411-9.146c0.255,0.004,0.464-0.2,0.467-0.453
		c0.005-0.254-0.199-0.464-0.453-0.468C29.218,1076.294,29.213,1076.294,29.209,1076.294z"/>
</g>
<path fill="#ECC731" stroke="#ECC731" stroke-width="0.2" stroke-linejoin="round" stroke-miterlimit="10" d="M-102.902,86.533
	l-0.158-0.113h-24.941l-10.446,7.662l5.705,7.777l4.355-3.195v20.297h25.721V98.667l4.352,3.192l5.705-7.777L-102.902,86.533z
	 M-110.448,87.59c-0.292,2.546-2.457,4.53-5.079,4.53c-2.623,0-4.788-1.984-5.079-4.53H-110.448z M-103.836,117.791h-23.382v-6.723
	h23.382V117.791z M-103.836,109.899h-23.382v-3.117h23.382V109.899z M-103.836,105.612h-23.382v-3.117h23.382V105.612z
	 M-98.565,100.226l-5.271-3.865v4.966h-23.381v-4.969l-5.274,3.868l-4.321-5.894l9.194-6.742h5.837
	c0.296,3.191,2.987,5.698,6.255,5.698c3.267,0,5.958-2.507,6.254-5.698h5.833l9.195,6.742L-98.565,100.226z"/>
<path fill="#ECC731" d="M120.322-6.263c-11.314,0-20.513,9.198-20.513,20.513s9.198,20.513,20.513,20.513
	s20.513-9.198,20.513-20.513S131.637-6.263,120.322-6.263z M101.71,14.25c0-4.794,1.813-9.155,4.793-12.48l6.391,6.392v18.137
	c0,1.123,0.907,2.073,2.073,2.073h10.753c1.123,0,2.073-0.907,2.073-2.073v-3.281l5.053,5.052c-3.282,2.98-7.687,4.794-12.48,4.794
	C110.044,32.862,101.71,24.527,101.71,14.25z M126.757,4.145v15.201L113.845,6.434V4.145H126.757z M117.213,2.158
	c0-0.216,0.173-0.346,0.346-0.346h5.398c0.216,0,0.345,0.173,0.345,0.346c0,0.216-0.173,0.346-0.345,0.346h-5.398
	C117.386,2.504,117.213,2.331,117.213,2.158z M126.757,22.023v0.604h-12.912V9.111L126.757,22.023z M121.358,25.478
	c0,0.562-0.475,1.037-1.036,1.037s-1.037-0.476-1.037-1.037s0.475-1.036,1.037-1.036S121.358,24.916,121.358,25.478z M134.141,26.73
	l-6.391-6.392V2.201c0-1.123-0.907-2.072-2.073-2.072h-10.753c-1.123,0-2.073,0.906-2.073,2.072v3.282l-5.052-5.053
	c3.282-2.979,7.687-4.793,12.48-4.793c10.278,0,18.613,8.334,18.613,18.612C138.935,19.043,137.121,23.405,134.141,26.73z"/>
<g>
	<path d="M302.633,516.159c31.549,0,57.217-25.666,57.217-57.215s-25.668-57.216-57.217-57.216
		c-31.547,0-57.215,25.667-57.215,57.216S271.086,516.159,302.633,516.159z M302.633,403.99c30.301,0,54.955,24.651,54.955,54.954
		s-24.654,54.954-54.955,54.954c-30.299,0-54.953-24.653-54.953-54.954S272.331,403.99,302.633,403.99z"/>
	<path d="M302.633,533.003c40.838,0,74.059-33.223,74.059-74.059s-33.221-74.059-74.059-74.059
		c-40.835,0-74.057,33.223-74.057,74.059S261.798,533.003,302.633,533.003z M302.633,387.147c39.59,0,71.799,32.209,71.799,71.797
		s-32.209,71.797-71.799,71.797c-39.587,0-71.796-32.209-71.796-71.797S263.044,387.147,302.633,387.147z"/>
	<path d="M229.195,387.593c0-1.87-1.326-3.392-2.955-3.392c-1.631,0-2.957,1.521-2.957,3.392v21.989
		c0,0.647-0.365,1.131-0.693,1.131s-0.694-0.483-0.694-1.131v-21.989c0-1.87-1.325-3.392-2.956-3.392
		c-1.63,0-2.955,1.521-2.955,3.392v21.989c0,0.647-0.364,1.131-0.689,1.131c-0.328,0-0.695-0.483-0.695-1.131v-21.989
		c0-1.87-1.324-3.392-2.955-3.392s-2.955,1.521-2.955,3.392v21.989c0,0.647-0.367,1.131-0.695,1.131
		c-0.327,0-0.693-0.483-0.693-1.131v-21.989c0-1.87-1.326-3.392-2.956-3.392s-2.956,1.521-2.956,3.392v27.121
		c0,8.627,3.513,16.298,8.809,19.389v93.812c0,2.807,2.281,5.089,5.088,5.089s5.088-2.282,5.088-5.089v-93.812
		c5.299-3.091,8.811-10.769,8.811-19.61v-26.899H229.195z M226.934,414.714c0,8.13-3.29,15.246-8.188,17.707
		c-0.382,0.191-0.622,0.583-0.622,1.011v94.482c0,1.559-1.269,2.827-2.826,2.827c-1.559,0-2.826-1.269-2.826-2.827v-94.482
		c0-0.428-0.24-0.819-0.623-1.011c-4.818-2.425-8.184-9.706-8.184-17.929v-26.899c0-0.647,0.366-1.131,0.694-1.131
		s0.694,0.483,0.694,1.131v21.989c0,1.871,1.324,3.393,2.955,3.393s2.956-1.521,2.956-3.393v-21.989
		c0-0.647,0.366-1.131,0.694-1.131s0.694,0.483,0.694,1.131v21.989c0,1.871,1.325,3.393,2.956,3.393
		c1.625,0,2.951-1.521,2.951-3.393v-21.989c0-0.647,0.365-1.131,0.693-1.131s0.695,0.483,0.695,1.131v21.989
		c0,1.871,1.324,3.393,2.955,3.393s2.955-1.521,2.955-3.393v-21.989c0-0.647,0.367-1.131,0.694-1.131
		c0.328,0,0.694,0.483,0.694,1.131v27.121H226.934z"/>
	<path d="M213.829,429.001c-3.48-1.75-5.909-7.042-5.909-12.867c0-0.624-0.506-1.131-1.131-1.131c-0.624,0-1.131,0.507-1.131,1.131
		c0,6.753,2.875,12.734,7.156,14.889c0.162,0.082,0.334,0.12,0.506,0.12c0.414,0,0.812-0.229,1.011-0.622
		C214.611,429.962,214.385,429.281,213.829,429.001z"/>
	<path d="M393.943,384.201c-7.129,0-13.037,53.516-13.037,54.056c0,4.618,3.477,8.438,7.949,8.979v80.678
		c0,2.807,2.283,5.089,5.088,5.089c2.807,0,5.09-2.282,5.09-5.089V424.523l-0.094-35.33
		C398.939,386.439,396.699,384.201,393.943,384.201z M396.771,527.914c0,1.559-1.27,2.827-2.828,2.827
		c-1.557,0-2.826-1.269-2.826-2.827v-81.763c0-0.402-0.23-0.762-0.576-0.966c-0.172-0.099-0.369-0.148-0.566-0.148
		c-0.033,0-0.066,0-0.102,0.004c-3.703-0.043-6.705-3.068-6.705-6.784c0-5.851,6.807-50.234,10.779-51.795
		c1.508,0,2.732,1.226,2.732,2.736l0.094,35.33v103.386H396.771z"/>
	<path d="M390.588,441.382c-1.938,0-3.516-1.578-3.516-3.519c0-0.624-0.508-1.131-1.131-1.131c-0.625,0-1.131,0.507-1.131,1.131
		c0,3.187,2.592,5.78,5.777,5.78c0.625,0,1.131-0.507,1.131-1.131S391.213,441.382,390.588,441.382z"/>
</g>
<g>
	<path fill="#ECC731" d="M82.385-34.337c0.433,0.433,0.974,0.649,1.623,0.649h5.461l7.137,7.138
		c0.432,0.433,0.974,0.649,1.622,0.649c0.595,0,1.135-0.216,1.622-0.649c0.433-0.433,0.648-0.973,0.648-1.623v-24.061
		c0-0.594-0.216-1.136-0.648-1.621c-0.866-0.866-2.325-0.866-3.19,0l-7.246,7.136h-5.46c-0.595,0-1.136,0.217-1.623,0.649
		c-0.432,0.433-0.648,0.973-0.648,1.623v8.543C81.682-35.311,81.898-34.771,82.385-34.337z M83.359-44.448
		c0-0.163,0.053-0.271,0.162-0.379c0.108-0.108,0.216-0.161,0.378-0.161h6.164l7.625-7.625c0.27-0.271,0.541-0.271,0.811,0
		c0.108,0.108,0.163,0.216,0.163,0.378v24.17c0,0.162-0.054,0.271-0.163,0.378c-0.27,0.27-0.541,0.27-0.811,0l-7.57-7.678h-6.164
		c-0.163,0-0.271-0.054-0.379-0.163c-0.109-0.107-0.163-0.27-0.163-0.378v-8.543H83.359z"/>
	<path fill="#ECC731" d="M104.716-33.527c0.162,0.163,0.379,0.271,0.595,0.271c0.216,0,0.432-0.108,0.595-0.271l5.299-5.298
		l5.298,5.298c0.163,0.163,0.378,0.271,0.595,0.271c0.217,0,0.433-0.108,0.595-0.271c0.324-0.324,0.324-0.864,0-1.188l-5.299-5.353
		l5.299-5.299c0.324-0.324,0.324-0.865,0-1.19c-0.325-0.324-0.865-0.324-1.19,0l-5.298,5.299l-5.299-5.299
		c-0.324-0.324-0.865-0.324-1.19,0c-0.324,0.325-0.324,0.866,0,1.19l5.299,5.299l-5.299,5.298
		C104.392-34.391,104.392-33.851,104.716-33.527z"/>
</g>
<path fill="#ECC731" stroke="#FFFFFF" stroke-width="0.5" stroke-miterlimit="10" d="M-51.525,53.141
	c-11.551,0-20.948-9.397-20.948-20.948c0-11.55,9.397-20.947,20.948-20.947s20.948,9.397,20.948,20.947
	C-30.578,43.743-39.975,53.141-51.525,53.141z M-51.525,13.722c-10.185,0-18.471,8.286-18.471,18.471
	c0,10.185,8.286,18.471,18.471,18.471s18.471-8.286,18.471-18.471C-33.055,22.008-41.341,13.722-51.525,13.722z M-51.5,44.849
	c8.236-0.277,11.423-6.031,11.979-7.182c0.241-0.501,0.062-1.12-0.4-1.382c-0.46-0.262-1.031-0.069-1.274,0.433
	c-0.289,0.597-3.024,5.84-10.363,6.088c-7.16,0.227-10.164-5.811-10.294-6.083c-0.239-0.501-0.805-0.701-1.269-0.441
	c-0.463,0.26-0.646,0.875-0.409,1.379c0.143,0.298,3.503,7.2,11.548,7.2C-51.823,44.858-51.664,44.855-51.5,44.849z M-56.412,28.073
	c0,1.456-0.779,2.637-1.737,2.637s-1.736-1.182-1.736-2.637c0-1.456,0.778-2.638,1.736-2.638S-56.412,26.617-56.412,28.073z
	 M-43.019,28.073c0,1.456-0.777,2.637-1.734,2.637c-0.958,0-1.737-1.182-1.737-2.637c0-1.456,0.777-2.638,1.737-2.638
	C-43.794,25.435-43.019,26.617-43.019,28.073z"/>
</svg>
