<?xml version="1.0" encoding="utf-8"?>
<!-- Generator: Adobe Illustrator 16.0.0, SVG Export Plug-In . SVG Version: 6.00 Build 0)  -->
<!DOCTYPE svg PUBLIC "-//W3C//DTD SVG 1.1//EN" "http://www.w3.org/Graphics/SVG/1.1/DTD/svg11.dtd">
<svg version="1.1" id="레이어_1" xmlns="http://www.w3.org/2000/svg" xmlns:xlink="http://www.w3.org/1999/xlink" x="0px"
	 y="0px" width="59px" height="59px" viewBox="0 0 59 59" enable-background="new 0 0 59 59" xml:space="preserve">
<g>
	<path d="M439.694-14.566c-0.449,0-0.877,0.179-1.213,0.515L417.467,6.895c-0.135-0.067-0.27-0.089-0.404-0.112
		c-0.314-0.022-0.65,0.045-0.943,0.247l-1.347,0.874l-0.269-0.292l-3.054-3.024c-0.674-0.649-1.571-1.052-2.492-1.143
		c-0.898-0.089-1.841,0.112-2.628,0.627l-8.732,5.847c-0.202-0.134-0.45-0.224-0.696-0.246c-0.383-0.045-0.741,0.044-1.078,0.246
		l-2.941,1.972c-0.314,0.202-0.562,0.583-0.583,0.963c-0.022,0.269,0.066,0.56,0.224,0.807l-6.376,4.278
		c-0.292,0.202-0.337,0.695-0.09,0.964l0.921,0.896l2.739,2.733c0.022,0.022,0.022,0.022,0.045,0.044l18.702,18.639l0.898,0.917
		c0.27,0.248,0.764,0.202,0.966-0.089l4.288-6.339c0.225,0.157,0.539,0.223,0.808,0.201c0.383-0.021,0.741-0.247,0.966-0.559
		l1.953-2.958c0.359-0.56,0.337-1.232,0-1.77l5.86-8.714c1.032-1.569,0.831-3.764-0.494-5.085l-3.054-3.046l-0.291-0.268
		l0.897-1.345c0.292-0.426,0.315-0.918,0.113-1.367l21.015-20.946c0.674-0.671,0.674-1.792,0-2.464l-1.459-1.456
		C440.593-14.41,440.144-14.566,439.694-14.566L439.694-14.566z M439.694-13.312c0.135,0,0.247,0.044,0.337,0.134l1.481,1.457
		c0.18,0.179,0.18,0.47,0,0.672L420.564,9.83l-0.27-0.291l-1.572-1.546l-0.269-0.291l20.902-20.88
		C439.47-13.267,439.581-13.312,439.694-13.312L439.694-13.312z M408.374,4.722c0.157,0,0.314,0,0.472,0
		c0.651,0.067,1.258,0.336,1.684,0.762l3.054,3.046l0.629,0.604l0.022,0.022l2.446,2.442l2.425,2.442
		c0.022,0.022,0.068,0.045,0.09,0.067l0.562,0.56l3.053,3.047c0.854,0.851,1.012,2.486,0.337,3.495l-5.68,8.445l-0.247-0.224h-0.022
		l-18.41-18.37l-0.225-0.246l8.487-5.668C407.431,4.901,407.902,4.767,408.374,4.722L408.374,4.722z M416.815,8.06
		c0.022-0.022,0.202,0,0.247,0.045c0.045,0.044,0.089,0.089,0.135,0.111l0.651,0.672l1.549,1.523l0.538,0.538
		c0.046,0.134,0.135,0.269,0.27,0.336c0,0.067,0,0.157,0,0.18l-0.741,1.12l-3.794-3.763L416.815,8.06L416.815,8.06z M396.632,10.972
		c0.112-0.022,0.292,0,0.358,0.089l0.113,0.089l0.021,0.022l0.764,0.762l18.434,18.392l0.785,0.784c0.022,0,0.022,0.022,0.045,0.045
		l0.068,0.067v0.022c0.112,0.089,0.135,0.358,0.066,0.448l-1.952,2.935c-0.022,0,0,0,0,0.022c-0.022,0-0.046,0-0.067-0.022
		l-0.269-0.291c-0.022-0.022-0.046-0.045-0.067-0.067l-1.999-1.994L395.937,15.34l-1.887-1.881c0,0-0.021-0.022-0.021-0.045l0,0
		c-0.067-0.089-0.136-0.157-0.226-0.202l-0.202-0.225c-0.044-0.044-0.044-0.044-0.044-0.044c0,0.022-0.022,0.022,0.021-0.022
		l2.964-1.927C396.563,10.972,396.587,10.972,396.632,10.972L396.632,10.972z M393.398,14.579l1.639,1.658l16.996,16.936l1.64,1.658
		l-3.951,5.869l-0.382-0.358l-2.515-2.509c0.382-1.39,0.988-2.599,2.11-3.608c0.202-0.18,0.271-0.493,0.158-0.739
		c-0.113-0.248-0.404-0.404-0.674-0.358c-0.135,0.021-0.248,0.067-0.337,0.156c-1.146,1.009-1.818,2.241-2.268,3.54l-3.054-3.069
		c0.358-0.829,0.606-1.523,1.481-2.173c0.225-0.157,0.314-0.492,0.225-0.74c-0.113-0.269-0.383-0.448-0.674-0.403
		c-0.112,0-0.225,0.067-0.337,0.134c-0.921,0.695-1.347,1.502-1.684,2.218l-2.693-2.733l3.277-3.271
		c0.202-0.202,0.27-0.538,0.135-0.784c-0.135-0.246-0.449-0.381-0.718-0.314c-0.112,0.022-0.225,0.089-0.314,0.18l-3.301,3.293
		l-2.739-2.709c0.742-0.336,1.527-0.762,2.245-1.68c0.315-0.381-0.066-1.076-0.562-1.031c-0.179,0.022-0.336,0.112-0.449,0.247
		c-0.673,0.875-1.369,1.12-2.2,1.479l-3.054-3.024c1.303-0.448,2.515-1.143,3.524-2.285c0.338-0.357,0.045-1.052-0.448-1.052
		c-0.18,0-0.359,0.067-0.472,0.201c-1.011,1.143-2.224,1.747-3.615,2.129l-2.537-2.532l-0.359-0.358L393.398,14.579L393.398,14.579z
		"/>
</g>
<g>
	<path d="M412.8,120.667c7.66,0,15.32-2.952,21.146-8.777c11.65-11.65,11.65-30.642,0-42.292c-11.65-11.65-30.641-11.65-42.291,0
		c-11.65,11.65-11.65,30.642,0,42.292C397.479,117.715,405.14,120.667,412.8,120.667z M393.33,71.274
		c5.346-5.347,12.447-8.06,19.47-8.06s14.124,2.713,19.47,8.06c10.773,10.772,10.773,28.167,0,38.94
		c-10.772,10.772-28.168,10.772-38.939,0C382.637,99.441,382.637,82.046,393.33,71.274z"/>
	<path d="M402.825,103.91c0.319,0,0.639-0.159,0.878-0.398l10.373-11.252c0.24-0.239,0.32-0.479,0.32-0.798V76.381
		c0-0.639-0.56-1.197-1.197-1.197c-0.639,0-1.197,0.559-1.197,1.197v14.603l-10.055,10.932c-0.479,0.479-0.398,1.277,0.08,1.676
		C402.188,103.83,402.506,103.91,402.825,103.91z"/>
</g>
<g>
	<g>
		<path d="M72.075-37.043H47.862c-0.459,0-0.831-0.372-0.831-0.831v-5.588c0-0.458,0.372-0.83,0.831-0.83h24.212
			c0.459,0,0.831,0.372,0.831,0.83v5.588C72.905-37.416,72.534-37.043,72.075-37.043z M48.692-38.705h22.552v-3.927H48.692V-38.705z
			"/>
	</g>
	<g>
		<path d="M47.862-37.043h-5.425c-0.459,0-0.831-0.372-0.831-0.831v-5.588c0-0.458,0.372-0.83,0.831-0.83h5.425
			c0.459,0,0.83,0.372,0.83,0.83v5.588C48.692-37.416,48.321-37.043,47.862-37.043z M43.268-38.705h3.764v-3.927h-3.764V-38.705z"/>
	</g>
	<g>
		<path d="M57.256-20.737c-10.99,0-19.931-8.941-19.931-19.932c0-10.989,8.941-19.931,19.931-19.931
			c10.99,0,19.931,8.941,19.931,19.931C77.187-29.678,68.246-20.737,57.256-20.737z M57.256-58.938
			c-10.074,0-18.27,8.195-18.27,18.27s8.196,18.271,18.27,18.271c10.075,0,18.271-8.196,18.271-18.271S67.331-58.938,57.256-58.938z
			"/>
	</g>
	<g>
		<path d="M66.801-42.631c-0.212,0-0.425-0.081-0.587-0.243c-0.324-0.324-0.324-0.851,0-1.175c0.139-0.139,0.215-0.322,0.215-0.518
			s-0.077-0.379-0.215-0.518l-0.189-0.19c-0.933-0.933-0.933-2.451-0.001-3.384l0.191-0.19c0.138-0.138,0.214-0.322,0.214-0.518
			s-0.077-0.379-0.215-0.518l-0.189-0.188c-0.934-0.935-0.934-2.453,0-3.386l0.189-0.19c0.325-0.324,0.85-0.324,1.174,0
			c0.325,0.325,0.325,0.851,0,1.175l-0.189,0.189c-0.286,0.285-0.286,0.751,0,1.036l0.189,0.188
			c0.453,0.453,0.702,1.054,0.702,1.693s-0.249,1.24-0.702,1.693l-0.19,0.189c-0.285,0.284-0.285,0.75,0.001,1.035l0.189,0.189
			c0.453,0.452,0.702,1.053,0.702,1.692s-0.249,1.24-0.702,1.692C67.226-42.712,67.013-42.631,66.801-42.631z"/>
	</g>
	<g>
		<path d="M62.949-42.631c-0.212,0-0.425-0.081-0.587-0.243c-0.325-0.324-0.325-0.851,0-1.175c0.285-0.285,0.285-0.75,0-1.035
			l-0.19-0.19c-0.933-0.933-0.933-2.451-0.001-3.384l0.191-0.19c0.285-0.285,0.285-0.75,0-1.035l-0.189-0.188
			c-0.325-0.324-0.325-0.851-0.001-1.175c0.325-0.325,0.85-0.325,1.174-0.002l0.19,0.189c0.934,0.935,0.934,2.453,0.001,3.386
			l-0.191,0.19c-0.284,0.284-0.284,0.75,0.001,1.035l0.19,0.189c0.933,0.934,0.933,2.451,0,3.385
			C63.374-42.712,63.162-42.631,62.949-42.631z"/>
	</g>
	<g>
		<path d="M70.763-26.332c-0.212,0-0.425-0.081-0.587-0.243L43.163-53.586c-0.325-0.324-0.325-0.85,0-1.175
			c0.324-0.324,0.85-0.324,1.174,0L71.35-27.75c0.324,0.324,0.324,0.851,0,1.175C71.188-26.413,70.975-26.332,70.763-26.332z"/>
	</g>
</g>
<g transform="translate(0,-952.36218)">
	<path fill="#ECC731" stroke="#ECC731" stroke-width="0.5" stroke-miterlimit="10" d="M29.5,1072.692
		c-10.932,0-19.8,8.868-19.8,19.8c0,10.927,8.868,19.8,19.8,19.8c10.927,0,19.8-8.873,19.8-19.8
		C49.3,1081.56,40.427,1072.692,29.5,1072.692z M29.5,1073.613c10.429,0,18.879,8.446,18.879,18.879
		c0,10.429-8.45,18.879-18.879,18.879c-10.433,0-18.879-8.45-18.879-18.879C10.621,1082.059,19.067,1073.613,29.5,1073.613z"/>
	<path fill="#ECC731" stroke="#ECC731" stroke-width="0.5" stroke-miterlimit="10" d="M29.5,1080.05
		c-6.868,0-12.442,5.574-12.442,12.442s5.574,12.442,12.442,12.442s12.442-5.574,12.442-12.442S36.368,1080.05,29.5,1080.05
		L29.5,1080.05z M29.5,1080.97c6.37,0,11.522,5.152,11.522,11.522s-5.152,11.522-11.522,11.522s-11.522-5.152-11.522-11.522
		S23.13,1080.97,29.5,1080.97L29.5,1080.97z"/>
	<path fill="#ECC731" stroke="#ECC731" stroke-width="0.5" stroke-miterlimit="10" d="M29.209,1076.294
		c-6.382,0-11.86,4.002-14.261,9.711c-0.102,0.232,0.004,0.504,0.238,0.605c0.232,0.102,0.504-0.006,0.605-0.238
		c0.002-0.003,0.003-0.007,0.006-0.011c2.266-5.389,7.415-9.146,13.411-9.146c0.255,0.004,0.464-0.2,0.467-0.453
		c0.005-0.254-0.199-0.464-0.453-0.468C29.218,1076.294,29.213,1076.294,29.209,1076.294z"/>
</g>
<path fill="#ECC731" stroke="#ECC731" stroke-width="0.2" stroke-linejoin="round" stroke-miterlimit="10" d="M42.127,13.343
	l-0.158-0.113H17.028L6.582,20.892l5.705,7.777l4.355-3.195v20.297h25.721V25.477l4.352,3.192l5.705-7.777L42.127,13.343z
	 M34.581,14.399c-0.292,2.546-2.457,4.53-5.079,4.53c-2.623,0-4.788-1.984-5.079-4.53H34.581z M41.192,44.601H17.811v-6.723h23.382
	V44.601z M41.192,36.709H17.811v-3.117h23.382V36.709z M41.192,32.422H17.811v-3.117h23.382V32.422z M46.463,27.035l-5.271-3.865
	v4.966H17.812v-4.969l-5.274,3.868l-4.321-5.894l9.194-6.742h5.837c0.296,3.191,2.987,5.698,6.255,5.698
	c3.267,0,5.958-2.507,6.254-5.698h5.833l9.195,6.742L46.463,27.035z"/>
<path d="M-4.429-78.152c-11.314,0-20.513,9.198-20.513,20.513s9.198,20.513,20.513,20.513s20.513-9.198,20.513-20.513
	S6.886-78.152-4.429-78.152z M-23.041-57.639c0-4.794,1.813-9.155,4.793-12.48l6.391,6.392v18.137c0,1.123,0.907,2.073,2.073,2.073
	H0.969c1.123,0,2.073-0.907,2.073-2.073v-3.281l5.053,5.052c-3.282,2.98-7.687,4.794-12.48,4.794
	C-14.707-39.027-23.041-47.362-23.041-57.639z M2.006-67.745v15.201l-12.912-12.912v-2.289H2.006z M-7.538-69.731
	c0-0.216,0.173-0.346,0.346-0.346h5.398c0.216,0,0.345,0.173,0.345,0.346c0,0.216-0.173,0.346-0.345,0.346h-5.398
	C-7.365-69.385-7.538-69.558-7.538-69.731z M2.006-49.866v0.604h-12.912v-13.517L2.006-49.866z M-3.393-46.412
	c0,0.562-0.475,1.037-1.036,1.037s-1.037-0.476-1.037-1.037s0.475-1.036,1.037-1.036S-3.393-46.973-3.393-46.412z M9.39-45.159
	L2.999-51.55v-18.138c0-1.123-0.907-2.072-2.073-2.072H-9.827c-1.123,0-2.073,0.906-2.073,2.072v3.282l-5.052-5.053
	c3.282-2.979,7.687-4.793,12.48-4.793c10.278,0,18.613,8.334,18.613,18.612C14.184-52.846,12.37-48.484,9.39-45.159z"/>
<g>
	<path d="M302.633,516.159c31.549,0,57.217-25.666,57.217-57.215s-25.668-57.216-57.217-57.216
		c-31.547,0-57.215,25.667-57.215,57.216S271.086,516.159,302.633,516.159z M302.633,403.99c30.301,0,54.955,24.651,54.955,54.954
		s-24.654,54.954-54.955,54.954c-30.299,0-54.953-24.653-54.953-54.954S272.331,403.99,302.633,403.99z"/>
	<path d="M302.633,533.003c40.838,0,74.059-33.223,74.059-74.059s-33.221-74.059-74.059-74.059
		c-40.835,0-74.057,33.223-74.057,74.059S261.798,533.003,302.633,533.003z M302.633,387.147c39.59,0,71.799,32.209,71.799,71.797
		s-32.209,71.797-71.799,71.797c-39.587,0-71.796-32.209-71.796-71.797S263.044,387.147,302.633,387.147z"/>
	<path d="M229.195,387.593c0-1.87-1.326-3.392-2.955-3.392c-1.631,0-2.957,1.521-2.957,3.392v21.989
		c0,0.647-0.365,1.131-0.693,1.131s-0.694-0.483-0.694-1.131v-21.989c0-1.87-1.325-3.392-2.956-3.392
		c-1.63,0-2.955,1.521-2.955,3.392v21.989c0,0.647-0.364,1.131-0.689,1.131c-0.328,0-0.695-0.483-0.695-1.131v-21.989
		c0-1.87-1.324-3.392-2.955-3.392s-2.955,1.521-2.955,3.392v21.989c0,0.647-0.367,1.131-0.695,1.131
		c-0.327,0-0.693-0.483-0.693-1.131v-21.989c0-1.87-1.326-3.392-2.956-3.392s-2.956,1.521-2.956,3.392v27.121
		c0,8.627,3.513,16.298,8.809,19.389v93.812c0,2.807,2.281,5.089,5.088,5.089s5.088-2.282,5.088-5.089v-93.812
		c5.299-3.091,8.811-10.769,8.811-19.61v-26.899H229.195z M226.934,414.714c0,8.13-3.29,15.246-8.188,17.707
		c-0.382,0.191-0.622,0.583-0.622,1.011v94.482c0,1.559-1.269,2.827-2.826,2.827c-1.559,0-2.826-1.269-2.826-2.827v-94.482
		c0-0.428-0.24-0.819-0.623-1.011c-4.818-2.425-8.184-9.706-8.184-17.929v-26.899c0-0.647,0.366-1.131,0.694-1.131
		s0.694,0.483,0.694,1.131v21.989c0,1.871,1.324,3.393,2.955,3.393s2.956-1.521,2.956-3.393v-21.989
		c0-0.647,0.366-1.131,0.694-1.131s0.694,0.483,0.694,1.131v21.989c0,1.871,1.325,3.393,2.956,3.393
		c1.625,0,2.951-1.521,2.951-3.393v-21.989c0-0.647,0.365-1.131,0.693-1.131s0.695,0.483,0.695,1.131v21.989
		c0,1.871,1.324,3.393,2.955,3.393s2.955-1.521,2.955-3.393v-21.989c0-0.647,0.367-1.131,0.694-1.131
		c0.328,0,0.694,0.483,0.694,1.131v27.121H226.934z"/>
	<path d="M213.829,429.001c-3.48-1.75-5.909-7.042-5.909-12.867c0-0.624-0.506-1.131-1.131-1.131c-0.624,0-1.131,0.507-1.131,1.131
		c0,6.753,2.875,12.734,7.156,14.889c0.162,0.082,0.334,0.12,0.506,0.12c0.414,0,0.812-0.229,1.011-0.622
		C214.611,429.962,214.385,429.281,213.829,429.001z"/>
	<path d="M393.943,384.201c-7.129,0-13.037,53.516-13.037,54.056c0,4.618,3.477,8.438,7.949,8.979v80.678
		c0,2.807,2.283,5.089,5.088,5.089c2.807,0,5.09-2.282,5.09-5.089V424.523l-0.094-35.33
		C398.939,386.439,396.699,384.201,393.943,384.201z M396.771,527.914c0,1.559-1.27,2.827-2.828,2.827
		c-1.557,0-2.826-1.269-2.826-2.827v-81.763c0-0.402-0.23-0.762-0.576-0.966c-0.172-0.099-0.369-0.148-0.566-0.148
		c-0.033,0-0.066,0-0.102,0.004c-3.703-0.043-6.705-3.068-6.705-6.784c0-5.851,6.807-50.234,10.779-51.795
		c1.508,0,2.732,1.226,2.732,2.736l0.094,35.33v103.386H396.771z"/>
	<path d="M390.588,441.382c-1.938,0-3.516-1.578-3.516-3.519c0-0.624-0.508-1.131-1.131-1.131c-0.625,0-1.131,0.507-1.131,1.131
		c0,3.187,2.592,5.78,5.777,5.78c0.625,0,1.131-0.507,1.131-1.131S391.213,441.382,390.588,441.382z"/>
</g>
<g>
	<path d="M0.387-41.532c0.345,0.346,0.777,0.519,1.295,0.519h4.362l5.7,5.7c0.345,0.346,0.777,0.519,1.295,0.519
		c0.475,0,0.907-0.173,1.295-0.519c0.346-0.346,0.518-0.777,0.518-1.296v-19.217c0-0.475-0.172-0.907-0.518-1.295
		c-0.691-0.691-1.857-0.691-2.548,0l-5.787,5.699H1.64c-0.475,0-0.907,0.174-1.296,0.519c-0.345,0.346-0.518,0.777-0.518,1.296
		v6.823C-0.174-42.309-0.001-41.877,0.387-41.532z M1.165-49.607c0-0.13,0.043-0.216,0.129-0.303
		c0.086-0.086,0.173-0.129,0.302-0.129h4.923l6.089-6.089c0.216-0.217,0.432-0.217,0.647,0c0.086,0.086,0.13,0.172,0.13,0.302
		v19.304c0,0.129-0.043,0.216-0.13,0.302c-0.216,0.216-0.432,0.216-0.647,0l-6.046-6.132H1.64c-0.13,0-0.216-0.043-0.302-0.13
		c-0.087-0.086-0.13-0.216-0.13-0.302v-6.823H1.165z"/>
	<path d="M18.222-40.884c0.129,0.13,0.302,0.216,0.475,0.216c0.172,0,0.345-0.086,0.475-0.216l4.232-4.231l4.232,4.231
		c0.13,0.13,0.302,0.216,0.475,0.216s0.346-0.086,0.475-0.216c0.259-0.259,0.259-0.69,0-0.949l-4.232-4.275l4.232-4.232
		c0.259-0.259,0.259-0.69,0-0.95c-0.259-0.259-0.691-0.259-0.95,0l-4.232,4.232l-4.232-4.232c-0.259-0.259-0.691-0.259-0.95,0
		c-0.259,0.26-0.259,0.691,0,0.95l4.232,4.232l-4.232,4.231C17.963-41.575,17.963-41.143,18.222-40.884z"/>
</g>
<path fill="#ECC731" stroke="#FFFFFF" stroke-width="0.5" stroke-miterlimit="10" d="M-51.525,53.141
	c-11.551,0-20.948-9.397-20.948-20.948c0-11.55,9.397-20.947,20.948-20.947s20.948,9.397,20.948,20.947
	C-30.578,43.743-39.975,53.141-51.525,53.141z M-51.525,13.722c-10.185,0-18.471,8.286-18.471,18.471
	c0,10.185,8.286,18.471,18.471,18.471s18.471-8.286,18.471-18.471C-33.055,22.008-41.341,13.722-51.525,13.722z M-51.5,44.849
	c8.236-0.277,11.423-6.031,11.979-7.182c0.241-0.501,0.062-1.12-0.4-1.382c-0.46-0.262-1.031-0.069-1.274,0.433
	c-0.289,0.597-3.024,5.84-10.363,6.088c-7.16,0.227-10.164-5.811-10.294-6.083c-0.239-0.501-0.805-0.701-1.269-0.441
	c-0.463,0.26-0.646,0.875-0.409,1.379c0.143,0.298,3.503,7.2,11.548,7.2C-51.823,44.858-51.664,44.855-51.5,44.849z M-56.412,28.073
	c0,1.456-0.779,2.637-1.737,2.637s-1.736-1.182-1.736-2.637c0-1.456,0.778-2.638,1.736-2.638S-56.412,26.617-56.412,28.073z
	 M-43.019,28.073c0,1.456-0.777,2.637-1.734,2.637c-0.958,0-1.737-1.182-1.737-2.637c0-1.456,0.777-2.638,1.737-2.638
	C-43.794,25.435-43.019,26.617-43.019,28.073z"/>
</svg>
