<?xml version="1.0" encoding="utf-8"?>
<!-- Generator: Adobe Illustrator 16.0.0, SVG Export Plug-In . SVG Version: 6.00 Build 0)  -->
<!DOCTYPE svg PUBLIC "-//W3C//DTD SVG 1.1//EN" "http://www.w3.org/Graphics/SVG/1.1/DTD/svg11.dtd">
<svg version="1.1" id="레이어_1" xmlns="http://www.w3.org/2000/svg" xmlns:xlink="http://www.w3.org/1999/xlink" x="0px"
	 y="0px" width="59px" height="59px" viewBox="0 0 59 59" enable-background="new 0 0 59 59" xml:space="preserve">
<g>
	<path d="M488.823-138.574c-1.273,0-2.483,0.509-3.438,1.461l-59.554,59.359c-0.383-0.189-0.765-0.253-1.146-0.316
		c-0.892-0.063-1.844,0.127-2.673,0.698l-3.817,2.477l-0.762-0.825l-8.654-8.571c-1.909-1.841-4.453-2.982-7.063-3.238
		c-2.545-0.253-5.217,0.316-7.445,1.777l-24.75,16.569c-0.572-0.38-1.273-0.635-1.973-0.698c-1.083-0.127-2.101,0.127-3.055,0.698
		l-8.336,5.588c-0.891,0.57-1.592,1.651-1.652,2.729c-0.064,0.763,0.189,1.588,0.635,2.287l-18.07,12.125
		c-0.828,0.572-0.955,1.97-0.254,2.731l2.609,2.54l7.764,7.745c0.063,0.063,0.063,0.063,0.127,0.127l53.002,52.821l2.545,2.601
		c0.764,0.701,2.164,0.572,2.736-0.253l12.154-17.965c0.636,0.443,1.526,0.633,2.289,0.57c1.083-0.062,2.101-0.699,2.736-1.585
		l5.535-8.382c1.018-1.587,0.955-3.491,0-5.016l16.608-24.696c2.926-4.446,2.354-10.667-1.4-14.412l-8.654-8.634l-0.825-0.76
		l2.544-3.811c0.827-1.208,0.894-2.603,0.319-3.874l59.556-59.361c1.911-1.904,1.911-5.079,0-6.983l-4.134-4.127
		C491.369-138.13,490.096-138.574,488.823-138.574L488.823-138.574z M488.823-135.019c0.382,0,0.7,0.126,0.954,0.38l4.199,4.127
		c0.509,0.509,0.509,1.332,0,1.904L434.61-69.436l-0.765-0.825l-4.454-4.383l-0.763-0.825l59.237-59.172
		C488.188-134.892,488.504-135.019,488.823-135.019L488.823-135.019z M400.063-83.912c0.446,0,0.892,0,1.338,0
		c1.845,0.19,3.563,0.952,4.771,2.16l8.654,8.634l1.781,1.714l0.063,0.063l6.934,6.92l6.872,6.92
		c0.063,0.063,0.192,0.127,0.254,0.19l1.592,1.587l8.651,8.635c2.418,2.41,2.865,7.046,0.955,9.904L425.832-13.25l-0.701-0.636
		h-0.063l-52.175-52.06l-0.635-0.698l24.052-16.063C397.391-83.403,398.727-83.785,400.063-83.912L400.063-83.912z M423.984-74.452
		c0.063-0.063,0.574,0,0.701,0.127c0.129,0.126,0.253,0.253,0.382,0.316l1.846,1.904l4.389,4.316l1.526,1.524
		c0.129,0.38,0.383,0.762,0.765,0.952c0,0.189,0,0.445,0,0.509l-2.101,3.175l-10.753-10.665L423.984-74.452L423.984-74.452z
		 M366.785-66.2c0.318-0.063,0.827,0,1.018,0.253l0.318,0.253l0.063,0.063l2.164,2.16l52.238,52.123l2.228,2.221
		c0.063,0,0.063,0.063,0.127,0.128l0.191,0.19v0.063c0.319,0.253,0.383,1.016,0.19,1.271l-5.534,8.317c-0.063,0,0,0,0,0.063
		c-0.063,0-0.129,0-0.191-0.063l-0.76-0.825c-0.063-0.063-0.13-0.127-0.192-0.189l-5.663-5.651l-48.168-47.996l-5.346-5.332
		c0,0-0.063-0.063-0.063-0.127l0,0c-0.19-0.253-0.383-0.445-0.639-0.572l-0.572-0.636c-0.126-0.126-0.126-0.126-0.126-0.126
		c0,0.063-0.063,0.063,0.063-0.063l8.398-5.461C366.592-66.2,366.658-66.2,366.785-66.2L366.785-66.2z M357.621-55.978l4.645,4.698
		l48.168,47.996l4.646,4.699l-11.198,16.633l-1.082-1.016l-7.125-7.111c1.081-3.938,2.8-7.366,5.981-10.225
		c0.572-0.509,0.765-1.396,0.446-2.094c-0.32-0.701-1.145-1.145-1.909-1.016c-0.382,0.062-0.701,0.19-0.954,0.443
		c-3.246,2.858-5.154,6.35-6.428,10.031l-8.654-8.697c1.018-2.35,1.719-4.316,4.199-6.16c0.637-0.443,0.892-1.395,0.637-2.096
		c-0.32-0.763-1.084-1.271-1.909-1.143c-0.319,0-0.636,0.19-0.954,0.38c-2.61,1.97-3.818,4.256-4.771,6.285l-7.635-7.746
		l9.289-9.269c0.572-0.572,0.765-1.524,0.383-2.221c-0.383-0.697-1.273-1.081-2.035-0.892c-0.318,0.063-0.636,0.253-0.891,0.509
		l-9.354,9.333l-7.764-7.68c2.102-0.952,4.328-2.159,6.363-4.76c0.892-1.081-0.189-3.049-1.592-2.922
		c-0.508,0.063-0.954,0.318-1.273,0.698c-1.908,2.479-3.88,3.175-6.234,4.193l-8.654-8.571c3.691-1.271,7.126-3.238,9.988-6.477
		c0.955-1.013,0.127-2.982-1.272-2.982c-0.509,0-1.018,0.191-1.337,0.571c-2.863,3.239-6.3,4.951-10.244,6.032l-7.191-7.174
		l-1.018-1.016L357.621-55.978L357.621-55.978z"/>
</g>
<g>
	<path d="M412.605,244.675c21.709,0,43.418-8.367,59.926-24.875c33.018-33.017,33.018-86.838,0-119.854
		c-33.016-33.016-86.836-33.016-119.853,0c-33.017,33.017-33.017,86.838,0,119.854C369.187,236.308,390.896,244.675,412.605,244.675
		z M357.428,104.695c15.151-15.152,35.277-22.841,55.178-22.841s40.027,7.688,55.178,22.841c30.529,30.528,30.529,79.827,0,110.355
		c-30.529,30.529-79.827,30.529-110.355,0C327.125,184.522,327.125,135.224,357.428,104.695z"/>
	<path d="M384.338,197.186c0.904,0,1.81-0.452,2.488-1.13l29.396-31.886c0.68-0.679,0.906-1.357,0.906-2.262v-42.74
		c0-1.81-1.584-3.393-3.393-3.393s-3.393,1.583-3.393,3.393v41.383l-28.493,30.981c-1.356,1.357-1.131,3.618,0.226,4.749
		C382.529,196.96,383.434,197.186,384.338,197.186z"/>
</g>
<g>
	<g>
		<path d="M-133.312,517.347h-126.791c-2.404,0-4.349-1.947-4.349-4.349v-29.262c0-2.401,1.945-4.349,4.349-4.349h126.791
			c2.404,0,4.35,1.947,4.35,4.349v29.262C-128.962,515.399-130.908,517.347-133.312,517.347z M-255.754,508.649h118.094v-20.564
			h-118.094V508.649z"/>
	</g>
	<g>
		<path d="M-260.103,517.347h-28.408c-2.403,0-4.349-1.947-4.349-4.349v-29.262c0-2.401,1.945-4.349,4.349-4.349h28.408
			c2.404,0,4.349,1.947,4.349,4.349v29.262C-255.754,515.399-257.699,517.347-260.103,517.347z M-284.162,508.649h19.71v-20.564
			h-19.71V508.649z"/>
	</g>
	<g>
		<path d="M-210.911,602.739c-57.55,0-104.372-46.822-104.372-104.372s46.822-104.372,104.372-104.372
			c57.55,0,104.372,46.822,104.372,104.372S-153.361,602.739-210.911,602.739z M-210.911,402.693
			c-52.755,0-95.674,42.919-95.674,95.674s42.919,95.675,95.674,95.675c52.755,0,95.674-42.92,95.674-95.675
			S-158.156,402.693-210.911,402.693z"/>
	</g>
	<g>
		<path d="M-160.929,488.085c-1.112,0-2.226-0.425-3.075-1.274c-1.698-1.698-1.698-4.452,0-6.151
			c0.727-0.724,1.126-1.686,1.126-2.709s-0.399-1.985-1.126-2.71l-0.993-0.995c-4.885-4.887-4.885-12.837-0.005-17.723l1.003-0.998
			c0.722-0.722,1.121-1.684,1.121-2.708c0-1.025-0.399-1.987-1.126-2.711l-0.989-0.989c-4.889-4.891-4.889-12.843-0.004-17.729
			l0.993-0.993c1.699-1.699,4.451-1.699,6.149,0c1.699,1.698,1.699,4.45,0,6.149l-0.993,0.994c-1.495,1.494-1.495,3.93,0,5.425
			l0.989,0.987c2.374,2.37,3.678,5.519,3.678,8.867c0,3.347-1.304,6.496-3.674,8.864l-0.998,0.993
			c-1.49,1.491-1.49,3.927,0.005,5.421l0.993,0.994c2.37,2.365,3.674,5.513,3.674,8.861s-1.304,6.496-3.674,8.863
			C-158.704,487.66-159.817,488.085-160.929,488.085z"/>
	</g>
	<g>
		<path d="M-181.098,488.085c-1.112,0-2.226-0.425-3.074-1.271c-1.699-1.699-1.699-4.453,0-6.151c1.494-1.495,1.494-3.929,0-5.424
			l-0.994-0.993c-4.884-4.887-4.884-12.837-0.004-17.723l1.002-0.998c1.49-1.49,1.49-3.927-0.004-5.421l-0.99-0.987
			c-1.702-1.697-1.702-4.451-0.008-6.152c1.698-1.698,4.45-1.7,6.149-0.006l0.994,0.991c4.888,4.891,4.888,12.843,0.004,17.729
			l-0.998,0.996c-1.49,1.491-1.49,3.927,0.004,5.421l0.994,0.994c4.884,4.886,4.884,12.836,0,17.722
			C-178.873,487.66-179.985,488.085-181.098,488.085z"/>
	</g>
	<g>
		<path d="M-140.183,573.442c-1.112,0-2.226-0.425-3.075-1.274l-141.456-141.449c-1.699-1.699-1.699-4.451,0-6.15
			s4.451-1.699,6.149,0l141.456,141.45c1.699,1.698,1.699,4.45,0,6.149C-137.958,573.018-139.071,573.442-140.183,573.442z"/>
	</g>
</g>
<g transform="translate(0,-952.36218)">
	<path fill="#ECC731" stroke="#ECC731" stroke-width="0.5" stroke-miterlimit="10" d="M29.5,1072.692
		c-10.932,0-19.8,8.868-19.8,19.8c0,10.927,8.868,19.8,19.8,19.8c10.927,0,19.8-8.873,19.8-19.8
		C49.3,1081.56,40.427,1072.692,29.5,1072.692z M29.5,1073.613c10.429,0,18.879,8.446,18.879,18.879
		c0,10.429-8.45,18.879-18.879,18.879c-10.433,0-18.879-8.45-18.879-18.879C10.621,1082.059,19.067,1073.613,29.5,1073.613z"/>
	<path fill="#ECC731" stroke="#ECC731" stroke-width="0.5" stroke-miterlimit="10" d="M29.5,1080.05
		c-6.868,0-12.442,5.574-12.442,12.442s5.574,12.442,12.442,12.442s12.442-5.574,12.442-12.442S36.368,1080.05,29.5,1080.05
		L29.5,1080.05z M29.5,1080.97c6.37,0,11.522,5.152,11.522,11.522s-5.152,11.522-11.522,11.522s-11.522-5.152-11.522-11.522
		S23.13,1080.97,29.5,1080.97L29.5,1080.97z"/>
	<path fill="#ECC731" stroke="#ECC731" stroke-width="0.5" stroke-miterlimit="10" d="M29.209,1076.294
		c-6.382,0-11.86,4.002-14.261,9.711c-0.102,0.232,0.004,0.504,0.238,0.605c0.232,0.102,0.504-0.006,0.605-0.238
		c0.002-0.003,0.003-0.007,0.006-0.011c2.266-5.389,7.415-9.146,13.411-9.146c0.255,0.004,0.464-0.2,0.467-0.453
		c0.005-0.254-0.199-0.464-0.453-0.468C29.218,1076.294,29.213,1076.294,29.209,1076.294z"/>
</g>
<path d="M94.751,504.457L94.114,504H-6.334l-42.07,30.855l22.975,31.324l17.541-12.866v81.74H95.697v-81.73l17.528,12.856
	l22.974-31.324L94.751,504.457z M64.357,508.708c-1.171,10.254-9.892,18.246-20.453,18.246s-19.281-7.992-20.454-18.246H64.357z
	 M90.989,630.346h-94.17v-27.074h94.17V630.346z M90.989,598.563h-94.17v-12.556h94.17V598.563z M90.989,581.298h-94.17v-12.556
	h94.17V581.298z M112.215,559.599L90.991,544.03v20.004H-3.18v-20.014l-21.237,15.578l-17.404-23.731l37.031-27.159h23.508
	c1.193,12.854,12.029,22.954,25.189,22.954s23.998-10.1,25.188-22.954H92.59l37.031,27.159L112.215,559.599z"/>
<path d="M-533.93,302.079c-59.249,0-107.416,48.168-107.416,107.416s48.167,107.416,107.416,107.416s107.417-48.168,107.417-107.416
	S-474.682,302.079-533.93,302.079z M-631.396,409.495c0-25.102,9.498-47.941,25.102-65.354l33.468,33.469v94.979
	c0,5.88,4.749,10.854,10.855,10.854h56.308c5.88,0,10.855-4.748,10.855-10.854v-17.187l26.458,26.458
	c-17.187,15.604-40.253,25.102-65.354,25.102C-587.751,506.961-631.396,463.316-631.396,409.495z M-500.235,356.579v79.601
	l-67.616-67.616v-11.984H-500.235z M-550.212,346.177c0-1.131,0.904-1.81,1.809-1.81h28.267c1.131,0,1.809,0.905,1.809,1.81
	c0,1.13-0.904,1.809-1.809,1.809h-28.267C-549.308,347.985-550.212,347.081-550.212,346.177z M-500.235,450.2v3.166h-67.616v-70.781
	L-500.235,450.2z M-528.503,468.292c0,2.939-2.487,5.427-5.427,5.427s-5.427-2.487-5.427-5.427c0-2.94,2.487-5.428,5.427-5.428
	S-528.503,465.352-528.503,468.292z M-461.565,474.85l-33.469-33.469v-94.979c0-5.88-4.749-10.854-10.854-10.854h-56.309
	c-5.88,0-10.855,4.748-10.855,10.854v17.187l-26.458-26.459c17.187-15.604,40.252-25.101,65.354-25.101
	c53.821,0,97.466,43.645,97.466,97.466C-436.464,434.597-445.962,457.437-461.565,474.85z"/>
<g>
	<path d="M302.633,516.159c31.549,0,57.217-25.666,57.217-57.215s-25.668-57.216-57.217-57.216
		c-31.547,0-57.215,25.667-57.215,57.216S271.086,516.159,302.633,516.159z M302.633,403.99c30.301,0,54.955,24.651,54.955,54.954
		s-24.654,54.954-54.955,54.954c-30.299,0-54.953-24.653-54.953-54.954S272.331,403.99,302.633,403.99z"/>
	<path d="M302.633,533.003c40.838,0,74.059-33.223,74.059-74.059s-33.221-74.059-74.059-74.059
		c-40.835,0-74.057,33.223-74.057,74.059S261.798,533.003,302.633,533.003z M302.633,387.147c39.59,0,71.799,32.209,71.799,71.797
		s-32.209,71.797-71.799,71.797c-39.587,0-71.796-32.209-71.796-71.797S263.044,387.147,302.633,387.147z"/>
	<path d="M229.195,387.593c0-1.87-1.326-3.392-2.955-3.392c-1.631,0-2.957,1.521-2.957,3.392v21.989
		c0,0.647-0.365,1.131-0.693,1.131s-0.694-0.483-0.694-1.131v-21.989c0-1.87-1.325-3.392-2.956-3.392
		c-1.63,0-2.955,1.521-2.955,3.392v21.989c0,0.647-0.364,1.131-0.689,1.131c-0.328,0-0.695-0.483-0.695-1.131v-21.989
		c0-1.87-1.324-3.392-2.955-3.392s-2.955,1.521-2.955,3.392v21.989c0,0.647-0.367,1.131-0.695,1.131
		c-0.327,0-0.693-0.483-0.693-1.131v-21.989c0-1.87-1.326-3.392-2.956-3.392s-2.956,1.521-2.956,3.392v27.121
		c0,8.627,3.513,16.298,8.809,19.389v93.812c0,2.807,2.281,5.089,5.088,5.089s5.088-2.282,5.088-5.089v-93.812
		c5.299-3.091,8.811-10.769,8.811-19.61v-26.899H229.195z M226.934,414.714c0,8.13-3.29,15.246-8.188,17.707
		c-0.382,0.191-0.622,0.583-0.622,1.011v94.482c0,1.559-1.269,2.827-2.826,2.827c-1.559,0-2.826-1.269-2.826-2.827v-94.482
		c0-0.428-0.24-0.819-0.623-1.011c-4.818-2.425-8.184-9.706-8.184-17.929v-26.899c0-0.647,0.366-1.131,0.694-1.131
		s0.694,0.483,0.694,1.131v21.989c0,1.871,1.324,3.393,2.955,3.393s2.956-1.521,2.956-3.393v-21.989
		c0-0.647,0.366-1.131,0.694-1.131s0.694,0.483,0.694,1.131v21.989c0,1.871,1.325,3.393,2.956,3.393
		c1.625,0,2.951-1.521,2.951-3.393v-21.989c0-0.647,0.365-1.131,0.693-1.131s0.695,0.483,0.695,1.131v21.989
		c0,1.871,1.324,3.393,2.955,3.393s2.955-1.521,2.955-3.393v-21.989c0-0.647,0.367-1.131,0.694-1.131
		c0.328,0,0.694,0.483,0.694,1.131v27.121H226.934z"/>
	<path d="M213.829,429.001c-3.48-1.75-5.909-7.042-5.909-12.867c0-0.624-0.506-1.131-1.131-1.131c-0.624,0-1.131,0.507-1.131,1.131
		c0,6.753,2.875,12.734,7.156,14.889c0.162,0.082,0.334,0.12,0.506,0.12c0.414,0,0.812-0.229,1.011-0.622
		C214.611,429.962,214.385,429.281,213.829,429.001z"/>
	<path d="M393.943,384.201c-7.129,0-13.037,53.516-13.037,54.056c0,4.618,3.477,8.438,7.949,8.979v80.678
		c0,2.807,2.283,5.089,5.088,5.089c2.807,0,5.09-2.282,5.09-5.089V424.523l-0.094-35.33
		C398.939,386.439,396.699,384.201,393.943,384.201z M396.771,527.914c0,1.559-1.27,2.827-2.828,2.827
		c-1.557,0-2.826-1.269-2.826-2.827v-81.763c0-0.402-0.23-0.762-0.576-0.966c-0.172-0.099-0.369-0.148-0.566-0.148
		c-0.033,0-0.066,0-0.102,0.004c-3.703-0.043-6.705-3.068-6.705-6.784c0-5.851,6.807-50.234,10.779-51.795
		c1.508,0,2.732,1.226,2.732,2.736l0.094,35.33v103.386H396.771z"/>
	<path d="M390.588,441.382c-1.938,0-3.516-1.578-3.516-3.519c0-0.624-0.508-1.131-1.131-1.131c-0.625,0-1.131,0.507-1.131,1.131
		c0,3.187,2.592,5.78,5.777,5.78c0.625,0,1.131-0.507,1.131-1.131S391.213,441.382,390.588,441.382z"/>
</g>
<g>
	<path d="M-508.712,493.845c1.81,1.81,4.071,2.714,6.784,2.714h22.84l29.85,29.851c1.81,1.809,4.071,2.714,6.784,2.714
		c2.488,0,4.749-0.905,6.784-2.714c1.809-1.81,2.713-4.071,2.713-6.784V418.993c0-2.488-0.904-4.749-2.713-6.784
		c-3.618-3.618-9.724-3.618-13.342,0l-30.303,29.85h-22.84c-2.488,0-4.749,0.905-6.784,2.714c-1.81,1.81-2.714,4.07-2.714,6.784
		v35.73C-511.651,489.774-510.747,492.036-508.712,493.845z M-504.641,451.557c0-0.678,0.226-1.131,0.678-1.583
		s0.904-0.679,1.583-0.679h25.78l31.885-31.885c1.131-1.131,2.261-1.131,3.392,0c0.452,0.452,0.679,0.904,0.679,1.583v101.084
		c0,0.679-0.227,1.131-0.679,1.583c-1.131,1.131-2.261,1.131-3.392,0l-31.66-32.112h-25.779c-0.679,0-1.131-0.226-1.583-0.678
		c-0.453-0.452-0.679-1.131-0.679-1.583v-35.73H-504.641z"/>
	<path d="M-415.316,497.237c0.678,0.678,1.583,1.13,2.487,1.13s1.809-0.452,2.487-1.13l22.162-22.162l22.161,22.162
		c0.679,0.678,1.583,1.13,2.487,1.13c0.905,0,1.81-0.452,2.488-1.13c1.356-1.357,1.356-3.618,0-4.976l-22.162-22.388l22.162-22.161
		c1.356-1.357,1.356-3.618,0-4.976c-1.357-1.356-3.619-1.356-4.976,0l-22.161,22.161l-22.162-22.161
		c-1.356-1.356-3.618-1.356-4.975,0c-1.357,1.357-1.357,3.618,0,4.976l22.161,22.161l-22.161,22.162
		C-416.673,493.619-416.673,495.88-415.316,497.237z"/>
</g>
<path fill="#ECC731" stroke="#FFFFFF" stroke-width="0.5" stroke-miterlimit="10" d="M29.29,51.447
	c-11.551,0-20.948-9.397-20.948-20.948c0-11.55,9.397-20.947,20.948-20.947S50.237,18.95,50.237,30.5
	C50.237,42.05,40.84,51.447,29.29,51.447z M29.29,12.029c-10.185,0-18.471,8.286-18.471,18.471c0,10.185,8.286,18.471,18.471,18.471
	S47.76,40.685,47.76,30.5C47.76,20.315,39.474,12.029,29.29,12.029z M29.315,43.156c8.236-0.277,11.423-6.031,11.979-7.182
	c0.241-0.501,0.062-1.12-0.4-1.382c-0.46-0.262-1.031-0.069-1.274,0.433c-0.289,0.597-3.024,5.84-10.363,6.088
	c-7.16,0.227-10.164-5.811-10.294-6.083c-0.239-0.501-0.805-0.701-1.269-0.441c-0.463,0.26-0.646,0.875-0.409,1.379
	c0.143,0.298,3.503,7.2,11.548,7.2C28.992,43.165,29.151,43.162,29.315,43.156z M24.403,26.379c0,1.456-0.779,2.637-1.737,2.637
	s-1.736-1.182-1.736-2.637c0-1.456,0.778-2.638,1.736-2.638S24.403,24.923,24.403,26.379z M37.796,26.379
	c0,1.456-0.777,2.637-1.734,2.637c-0.958,0-1.737-1.182-1.737-2.637c0-1.456,0.777-2.638,1.737-2.638
	C37.021,23.741,37.796,24.923,37.796,26.379z"/>
</svg>
